<?xml version="1.0" encoding="UTF-8" standalone="no"?>
<svg
   width="64"
   height="64"
   version="1.1"
   id="svg1"
   sodipodi:docname="generic_button.svg"
   inkscape:version="1.3.2 (091e20e, 2023-11-25)"
   xmlns:inkscape="http://www.inkscape.org/namespaces/inkscape"
   xmlns:sodipodi="http://sodipodi.sourceforge.net/DTD/sodipodi-0.dtd"
   xmlns="http://www.w3.org/2000/svg"
   xmlns:svg="http://www.w3.org/2000/svg">
  <sodipodi:namedview
     id="namedview1"
     pagecolor="#ffffff"
     bordercolor="#000000"
     borderopacity="0.25"
     inkscape:showpageshadow="2"
     inkscape:pageopacity="0.0"
     inkscape:pagecheckerboard="0"
     inkscape:deskcolor="#d1d1d1"
     inkscape:zoom="10.921875"
     inkscape:cx="15.793991"
     inkscape:cy="32"
     inkscape:window-width="1392"
     inkscape:window-height="1212"
     inkscape:window-x="0"
     inkscape:window-y="25"
     inkscape:window-maximized="0"
     inkscape:current-layer="svg1" />
  <defs
     id="defs1" />
  <path
     stroke="none"
     fill="#ffffff"
     d="m 51.193992,24.038681 c 0,3.556056 -1.892765,6.55482 -5.678296,8.996291 -3.678896,2.494547 -8.184211,3.74182 -13.515945,3.74182 -5.331733,0 -9.863707,-1.247273 -13.595921,-3.74182 -3.732213,-2.441471 -5.59832,-5.440235 -5.59832,-8.996291 0,-3.556056 1.866107,-6.554819 5.59832,-8.99629 3.732214,-2.494547 8.264188,-3.74182 13.595921,-3.74182 5.331734,0 9.837049,1.247273 13.515945,3.74182 3.785531,2.441471 5.678296,5.440234 5.678296,8.99629"
     id="path1"
     style="display:inline;fill:#ff0000;stroke-width:1.59589"
     sodipodi:nodetypes="ccscscscc" />
  <path
     stroke="none"
     fill="#ffffff"
     d="m 31.999751,8.1160432 c -6.717984,0 -12.422939,1.6188016 -17.114865,4.8564048 v -0.07961 c -5.8649069,3.821433 -8.6907257,8.598224 -8.4774564,14.330374 -0.2132693,5.732149 2.6125495,10.508941 8.4774564,14.330374 4.691926,3.184527 10.396881,4.776791 17.114865,4.776791 6.717985,0 12.396281,-1.592264 17.034889,-4.776791 l 0.07998,-0.07961 c 5.864907,-3.821433 8.690726,-8.571687 8.477457,-14.250761 0.213269,-5.679075 -2.61255,-10.429328 -8.477457,-14.250761 l -0.07998,-0.07961 C 44.396032,9.7083101 38.717736,8.1160432 31.999751,8.1160432 m 0,-3.1845276 c 8.157553,0 15.062148,1.9637921 20.713785,5.8913764 l 0.239929,0.238839 c 7.677696,5.095244 11.356592,11.464299 11.036688,19.107166 V 30.328123 30.646576 32 v 1.353424 0.159227 0.318453 c 0.319904,7.642866 -3.358992,14.038459 -11.036688,19.186778 l -0.239929,0.159227 c -5.651637,3.927584 -12.556232,5.891376 -20.713785,5.891376 -8.157553,0 -15.062148,-1.963792 -20.713785,-5.891376 l 0.07998,0.07961 C 3.4749774,48.108402 -0.31055482,41.633197 0.0093492,33.831104 V 33.353424 32 30.646576 30.168897 C -0.31055482,22.366804 3.4749761,15.891598 11.365942,10.743278 l 0.959712,-0.477679 c 5.438368,-3.5560556 11.9964,-5.3340834 19.674097,-5.3340834"
     id="path2"
     style="display:inline;fill:#ff0000;stroke-width:1.59589"
     sodipodi:nodetypes="cccccsccccccccccccccccccscccccccccc"
     sodipodi:insensitive="true" />
</svg>
